# xmcd CD database file
#
# Track frame offsets:
#	150
#	21153
#	45975
#	67110
#	106575
#	128116
#	166632
#	187559
#	214620
#	244286
#	268226
#
# Disc length: 3956 seconds
#
# Revision: 0
# Processed by: cddbd v1.5.2PL0 Copyright (c) Steve Scherf et al.
# Submitted via: CDex 1.51
#
DISCID=8a0f720b
DTITLE=Patrick Palomo - Evolutions
DYEAR=2007
DGENRE=Jazz
TTITLE0=Evolutions
TTITLE1=Areklao
TTITLE2=Doni Sali
TTITLE3=Caravan
TTITLE4=Language Of Love
TTITLE5=Frequency
TTITLE6=Miracle
TTITLE7=Mambo Jalambo
TTITLE8=Princess Kingdom
TTITLE9=Far East
TTITLE10=The Nearness Of You
EXTD=YEAR: 2007
EXTT0=
EXTT1=
EXTT2=
EXTT3=
EXTT4=
EXTT5=
EXTT6=
EXTT7=
EXTT8=
EXTT9=
EXTT10=
PLAYORDER=
